<?xml version="1.0" encoding="UTF-8" standalone="no"?>
<!DOCTYPE svg PUBLIC "-//W3C//DTD SVG 1.1//EN" "http://www.w3.org/Graphics/SVG/1.1/DTD/svg11.dtd">
<svg width="100%" height="100%" viewBox="0 0 600 600" version="1.1" xmlns="http://www.w3.org/2000/svg" xmlns:xlink="http://www.w3.org/1999/xlink" xml:space="preserve" xmlns:serif="http://www.serif.com/" style="fill-rule:evenodd;clip-rule:evenodd;stroke-linejoin:round;stroke-miterlimit:2;">
    <path d="M211.134,197.461L299.978,43.995L502.126,392.649L299.982,566.991L98.139,392.647L196.573,222.614C180.202,223.874 150.783,242.24 140.107,279.308C136.208,259.338 139.747,234.808 146.687,223.325C110.238,234.437 111.949,260.67 108.642,295.2C100.588,270.861 88.914,245.347 112.084,204.612C85.509,210.719 75.718,230.279 68.386,278.643C39.573,152.317 165.546,96.026 239.38,95.135C174.723,129.704 193.981,180.485 211.134,197.461ZM90.53,510.635L90.53,562.005L38.951,562.005L38.951,510.635L90.53,510.635ZM561.051,510.635L561.051,562.005L509.472,562.005L509.472,510.635L561.051,510.635ZM278.256,537.387L299.987,556.156L321.887,537.268L299.392,537.088L278.256,537.387ZM207.824,231.34C208.307,228.054 207.265,225.676 205.115,224.229L111.646,385.686L189.764,385.686C192.159,371.723 194.953,354.144 197.708,335.943L197.708,335.947C199.201,327.07 201.326,318.301 203.864,309.535C206.331,301.018 209.182,292.538 212.482,284.099C213.715,281.677 215.798,279.17 218.378,276.574C220.556,274.383 223.105,272.158 225.891,269.948C228.949,267.521 232.287,265.113 235.758,262.819C238.41,261.068 241.13,259.376 243.858,257.796C242.55,266.513 240.945,275.093 239.267,283.657C238.503,287.552 237.732,291.429 236.95,295.308C236.08,299.627 235.172,303.927 234.315,308.237C233.457,312.555 232.624,316.875 231.824,321.197C231.137,324.912 230.504,328.631 229.864,332.35C228.903,337.943 227.999,343.531 227.056,349.125L227.051,349.151C226.635,352.658 225.442,355.854 223.728,358.882C221.217,363.319 217.649,367.376 213.751,371.339C218.097,367.73 222.126,363.992 225.1,359.75C227.264,356.663 228.837,353.316 229.626,349.604C230.979,344.146 232.376,338.657 233.685,333.13C234.557,329.448 235.408,325.764 236.194,322.06C236.849,318.976 237.465,315.882 238.031,312.778C238.258,311.533 238.476,310.286 238.686,309.038C246.114,320.406 250.17,334.794 249.759,354.222C249.72,356.07 249.534,357.899 249.214,359.705L249.214,359.703L249.213,359.709C248.173,365.583 245.725,371.216 242.365,376.469C240.203,379.283 237.651,381.818 234.862,384.152C231.922,386.611 228.732,388.841 225.451,390.936C223.247,392.343 221.008,393.684 218.787,394.993C216.385,396.407 213.997,397.767 211.707,399.127C209.226,400.6 206.852,402.06 204.663,403.529C198.878,407.415 194.332,411.34 192.325,415.59C189.739,421.07 190.963,427.302 199.659,434.886C201.901,436.818 205.504,438.48 208.683,440.685C209.936,441.554 211.116,442.5 212.114,443.597C216.096,448.004 217.708,453.118 213.629,460.208C215.156,442.848 186.459,450.384 171.171,432.638C165.086,432.527 160.244,432.403 156.733,432.419L267.5,528.096C276.487,527.864 281.76,524.839 283.313,519.024C284.1,516.087 288.961,475.722 293.275,435.703C288.069,435.557 282.068,435.258 275.275,434.805L200.001,432.956C193.909,426.325 192.903,421.435 195.345,417.157C196.245,415.582 197.603,414.133 199.26,412.696C201.408,410.833 204.084,409.065 207.046,407.233C209.246,405.873 211.607,404.495 214.038,403.043C216.342,401.665 218.708,400.227 221.068,398.705C226.65,395.103 232.244,391.11 236.945,386.428C237.192,386.182 237.436,385.934 237.677,385.686L298.315,385.686C299.903,368.092 300.713,355.635 299.988,354.484C297.342,350.287 289.02,347.652 281.678,346.577C278.937,346.09 277.566,344.969 277.566,343.211C277.566,341.455 278.595,340.576 280.657,340.576L307.432,341.161L348.486,340.576C353.39,340.576 355.841,341.553 355.841,343.504C355.841,344.969 354.52,345.894 351.876,346.286C341.009,347.652 333.097,350.427 330.405,356.869C329.702,358.551 328.231,369.847 326.46,385.686L374.753,385.686C377.213,381.822 379.467,377.734 381.514,373.423C389.403,356.81 393.347,339.152 393.347,320.448C393.347,313.943 393.079,298.814 392.08,292.594C389.893,281.75 386.997,272.235 383.477,263.901C379.49,255.05 374.326,246.543 367.981,238.379C344.842,211.53 309.926,212.833 272.122,215.376C270.322,214.824 268.51,214.341 266.691,213.919C266.691,213.919 266.691,213.919 266.691,213.919C263.106,213.087 259.494,212.526 255.929,212.03C255.929,212.03 255.929,212.03 255.929,212.03C253.769,211.731 251.624,211.486 249.501,211.24C249.501,211.24 249.501,211.24 249.501,211.24C246.255,210.864 243.078,210.498 239.981,210.047C239.981,210.047 239.981,210.047 239.981,210.047C237.777,209.727 235.622,209.361 233.527,208.91C238.462,208.592 247.938,206.151 258.638,204.289C264.925,203.195 279.003,201.504 293.242,200.993C308.555,200.443 324.053,201.14 330.242,201.914C363.757,206.102 390.229,221.927 397.304,228.211L299.983,60.356L217.783,202.346C217.679,202.566 217.338,203.283 217.413,203.353C223.308,208.871 230.807,211.892 239.171,214.061C239.171,214.061 239.171,214.061 239.171,214.061C242.265,214.863 245.466,215.523 248.744,216.156C248.744,216.156 248.744,216.156 248.744,216.156C250.835,216.56 252.952,216.954 255.093,217.331C258.536,217.94 262.019,218.591 265.522,219.3C265.522,219.3 265.522,219.3 265.522,219.3C270.577,220.323 275.657,221.5 280.636,223.399C284.038,224.696 287.393,226.256 290.679,228.259C295.195,231.013 299.558,234.499 303.681,239.118C303.857,239.314 304.155,239.341 304.363,239.178C304.563,239.02 304.612,238.739 304.481,238.524C311.422,234.206 315.604,227.787 314.549,221.337C320.961,226.051 321.474,238.021 325.168,244.397C332.004,241.522 336.208,236.592 339.729,231.128C349.104,250.368 334.871,253.536 340.791,271.952C347.304,292.21 350.206,290.284 351.802,303.43C352.967,313.032 348.089,319.65 340.772,322.967C343.305,317.485 340.916,310.206 334.763,306.955C332.734,308.685 328.115,308.124 324.871,307.133C330.526,298.931 320.928,286.808 306.178,287.034C297.689,287.164 300.608,306.109 310.634,308.258C310.686,308.269 310.729,308.301 310.777,308.323C309.87,310.942 308.195,313.502 301.894,315.712C302.361,321.487 307.024,325.56 311.766,329.603C301.058,333.257 296.155,330.596 285.277,323.112C293.07,291.065 266.582,282.763 286.665,257.676L286.663,257.675C284.467,254.28 282.414,250.91 279.408,248.72C278.711,248.16 277.905,247.597 276.971,247.104C275.385,246.268 273.44,245.648 271.033,245.564C268.541,245.49 265.578,245.993 262.515,246.786C258.319,247.873 253.962,249.518 250.429,250.936C244.885,253.231 239.061,256.087 233.579,259.343C229.871,261.546 226.32,263.922 223.111,266.386C220.118,268.686 217.421,271.066 215.158,273.438C212.253,276.483 210.068,279.535 208.774,282.368L208.725,282.466L208.689,282.569C205.882,291.357 203.437,300.134 201.586,308.967C201.061,311.475 200.583,313.983 200.151,316.492C195.762,311.946 192.594,307.204 190.349,302.372C188.648,298.711 187.529,295.014 186.855,291.305C186.157,287.461 185.999,283.626 186.205,279.827C186.345,277.262 186.675,274.724 187.118,272.211C187.567,269.67 188.137,267.16 188.837,264.7C189.917,260.906 191.279,257.239 192.851,253.759C195.435,248.04 198.527,242.852 201.827,238.546C204.543,235.002 207.321,232.051 210.014,229.903C209.296,230.338 208.564,230.817 207.824,231.34ZM486.388,395.388L332.541,528.079C326.743,527.075 322.672,525.569 320.323,523.564C317.582,521.221 315.72,518.197 314.743,514.487C314.245,512.604 317.595,473.681 321.365,434.974C341.513,433.299 358.302,429.105 371.731,422.39C384.981,415.764 396.597,406.764 406.577,395.388L486.388,395.388ZM297.411,395.388L226.724,395.388C226.225,401.174 226.064,404.879 226.352,405.748C226.829,407.192 227.428,408.58 228.147,409.911C235.778,421.901 265.93,425.437 294.499,424.222C295.559,414.146 296.555,404.329 297.411,395.388ZM146.21,423.33L113.862,395.388L177.668,395.388C168.944,403.343 164.995,414.521 165.588,421.669C163.657,421.869 161.68,422.066 159.705,422.32C153.914,423.001 148.95,423.12 146.21,423.33ZM367.76,395.388L325.397,395.388C324.531,403.457 323.618,412.291 322.707,421.385C333.292,419.629 342.021,417.228 346.954,414.48C347.516,414.104 348.073,413.72 348.623,413.328C355.808,408.215 362.188,402.234 367.76,395.388ZM488.607,385.686L414.281,385.686C415.015,384.664 415.74,383.626 416.455,382.572C428.381,364.972 434.344,344.264 434.344,320.448C434.344,308.392 432.771,295.946 429.605,283.922L488.607,385.686ZM319.262,262.94C317.634,268.016 318.156,271.361 320.244,273.442C322.332,275.524 325.989,276.341 330.633,276.364C328.9,269.452 326.32,263.54 319.262,262.94ZM195.499,243.397L195.468,243.438L195.446,243.392L195.535,243.351L195.499,243.397ZM90.53,37.848L90.53,89.218L38.951,89.218L38.951,37.848L90.53,37.848ZM561.051,37.848L561.051,89.218L509.472,89.218L509.472,37.848L561.051,37.848Z" style="fill:white;"/>
</svg>
