<?xml version="1.0" encoding="UTF-8" standalone="no"?>
<!DOCTYPE svg PUBLIC "-//W3C//DTD SVG 1.1//EN" "http://www.w3.org/Graphics/SVG/1.1/DTD/svg11.dtd">
<svg width="100%" height="100%" viewBox="0 0 600 600" version="1.1" xmlns="http://www.w3.org/2000/svg" xmlns:xlink="http://www.w3.org/1999/xlink" xml:space="preserve" xmlns:serif="http://www.serif.com/" style="fill-rule:evenodd;clip-rule:evenodd;stroke-linecap:round;stroke-miterlimit:7;">
    <g transform="matrix(1.21883,0,0,1.29897,-65.666,-64.4252)">
        <path d="M143.011,350.511L300,96.062L457.228,350.511L300.003,477.749L143.011,350.511Z" style="fill:white;"/>
        <path d="M299.996,83.466L134.395,351.873L299.999,486.09L465.85,351.874L299.996,83.466ZM143.011,350.511L300,96.062L457.228,350.511L300.003,477.749L143.011,350.511Z"/>
        <path d="M472.874,352.984L299.992,73.203L127.375,352.982L299.996,492.886L472.874,352.984ZM299.996,83.466L134.395,351.873L299.999,486.09L465.85,351.874L299.996,83.466ZM143.011,350.511L300,96.062L457.228,350.511L300.003,477.749L143.011,350.511ZM150.031,349.402L300.004,106.325C324.169,145.434 433.043,321.629 450.204,349.401C429.446,366.2 321.156,453.837 300.006,470.953L150.031,349.402Z" style="fill:white;"/>
    </g>
    <g>
        <rect x="38.951" y="510.635" width="51.578" height="51.371" style="fill:white;"/>
    </g>
    <g>
        <rect x="509.472" y="510.635" width="51.578" height="51.371" style="fill:white;"/>
    </g>
    <g>
        <rect x="38.951" y="37.848" width="51.578" height="51.371" style="fill:white;"/>
    </g>
    <g>
        <rect x="509.472" y="37.848" width="51.578" height="51.371" style="fill:white;"/>
    </g>
    <g transform="matrix(2.13499,0,0,2.12816,-72.8713,-595.908)">
        <path d="M165.588,440.044L178.129,440.319L197.358,440.044C199.655,440.044 200.803,440.503 200.803,441.42C200.803,442.108 200.184,442.543 198.946,442.727C193.856,443.369 190.15,444.673 188.889,447.7C187.628,450.726 181.094,520.02 181.553,521.763C182.011,523.506 182.883,524.927 184.167,526.028C185.451,527.128 187.835,527.908 191.321,528.367C192.467,528.504 188.713,532.498 188.713,532.498L174.363,532.383L159.821,532.589C158.213,532.589 157.409,530.522 157.409,529.605C157.409,528.642 158.051,528.16 159.335,528.16C163.599,528.069 166.099,526.647 166.832,523.895C167.566,521.144 175.88,448.551 174.642,446.579C173.403,444.607 169.505,443.369 166.066,442.864C164.782,442.635 164.14,442.108 164.14,441.282C164.14,440.457 164.622,440.044 165.588,440.044Z" style="fill-rule:nonzero;"/>
    </g>
    <g transform="matrix(0.884854,0.0474698,-0.0474698,0.884854,28.367,49.2361)">
        <path d="M245.699,169.231C237.615,169.448 230.914,167.314 225.696,164.273C223.742,163.134 221.241,160.504 220.046,159.798C199.578,147.713 163.654,85.547 240.562,38.966C157.414,44.434 18.859,115.483 58.966,256.096C64.304,201.152 74.155,178.519 103.733,170.03C80.085,217.335 94.783,245.38 105.33,272.321C106.969,233.21 103.455,203.751 143.858,189.026C136.731,202.385 134.226,230.241 139.827,252.51C154.123,190.57 215.869,171.153 213.207,194.644C213.114,195.463 218.06,193.934 218.361,194.784C223.518,191.135 240.342,172.206 245.699,169.231Z"/>
        <path d="M213.354,201.767L214.826,205.922L222.433,200.539C225.681,198.242 233.393,190.229 240.212,183.466C243.947,179.761 247.274,176.421 249.122,175.395L274.303,161.41L245.51,162.183C238.94,162.36 233.487,160.653 229.246,158.182C227.303,157.049 224.82,154.43 223.632,153.728L223.631,153.727C210.968,146.25 192.018,116.972 204.858,86.026C210.639,72.093 222.793,57.971 244.215,44.996L268.915,30.036L240.099,31.931C153.739,37.61 10.53,111.985 52.186,258.03L62.387,293.794L65.983,256.778C69.777,217.73 75.15,195.959 89.937,184.469C76.139,224.116 89.002,249.953 98.765,274.891L110.972,306.074L112.374,272.616C112.861,261.005 112.881,250.253 113.761,240.497C114.86,228.301 117.194,217.757 124.489,209.378C126.576,206.981 129.062,204.774 132.012,202.748C128.953,217.987 128.795,237.555 132.99,254.23L140.121,282.584L146.697,254.096C154.58,219.938 177.884,199.626 194.961,193.685C196.977,192.983 198.889,192.495 200.654,192.239C202.334,191.995 203.844,191.949 205.12,192.215C205.549,192.304 205.95,192.366 206.213,192.615C206.494,192.881 206.261,193.327 206.202,193.85C205.913,196.391 206.763,198.407 208.517,200.001C209.248,200.666 210.257,201.323 211.651,201.683C211.943,201.759 212.591,201.779 213.354,201.767ZM245.699,169.231C237.615,169.448 230.914,167.314 225.696,164.273C223.742,163.134 221.241,160.504 220.046,159.798C199.578,147.713 163.654,85.547 240.562,38.966C157.414,44.434 18.859,115.483 58.966,256.096C64.304,201.152 74.155,178.519 103.733,170.03C80.085,217.335 94.783,245.38 105.33,272.321C106.969,233.21 103.455,203.751 143.858,189.026C136.731,202.385 134.226,230.241 139.827,252.51C154.123,190.57 215.869,171.153 213.207,194.644C213.114,195.463 218.06,193.934 218.361,194.784C223.518,191.135 240.342,172.206 245.699,169.231Z" style="fill:white;"/>
    </g>
    <g transform="matrix(1.05978,0,0,1.05638,-17.945,36.1289)">
        <path d="M119.446,335.493L482.714,335.493" style="fill:none;stroke:black;stroke-width:9.17px;"/>
    </g>
    <g transform="matrix(1.19449,-0.48415,0.480438,1.18533,-179.774,155.388)">
        <path d="M247.368,222.415C248.35,215.338 260.278,201.693 273.141,197.42C281.042,197.259 295.428,193.173 302.255,201.779C304.26,204.307 305.236,205.971 305.581,211.11C283.829,223.39 300.456,237.185 285.512,258.118C291.153,266.736 293.903,270.104 302.667,270.601C300.436,266.279 298.27,261.958 299.617,257.636C304.792,257.885 306.743,256.522 308.158,254.891C308.13,254.861 308.108,254.825 308.074,254.802C301.491,250.3 304.914,235.715 311.056,238.114C321.728,242.282 325.096,253.886 318.639,258.168C320.683,259.839 323.841,261.602 325.804,260.944C329.281,265.107 328.877,271.083 325.458,274.311C331.686,274.057 337.122,270.694 339.083,263.394C341.767,253.4 339.119,253.943 340.34,237.351C341.45,222.268 352.608,224.153 351.474,207.458C347.35,210.383 342.89,212.721 337.137,212.796C336.339,207.091 339.459,198.267 336.222,192.968C335.078,198.053 330.023,201.513 323.591,202.529C316.095,181.733 295.999,166.068 275.126,168.209C256.678,167.782 257.299,173.449 244.153,173.969L247.368,222.415ZM327.486,224.498C324.836,227.698 324.236,230.275 325.131,232.396C326.026,234.518 328.417,236.184 331.75,237.565C332.518,232.047 332.386,227.006 327.486,224.498Z"/>
    </g>
    <g transform="matrix(1.09582,0,0,1.09582,-28.7596,19.0705)">
        <path d="M202.212,377.534C182.498,377.689 169.651,376.856 165.034,377.377C161.293,377.377 159.422,376.49 159.422,374.716C159.422,373.477 156.542,369.56 157.902,369.148C159.262,368.735 164.956,368.815 171.985,367.989C181.055,366.821 190.177,366.988 193.861,361.365C197.546,355.742 219.85,204.223 218.629,196.407C217.387,188.456 215.535,182.991 213.074,180.012C212.727,179.592 223.634,166.785 224.757,167.645C229.649,171.39 233.845,172.935 237.789,173.247C241.588,173.548 251.211,170.947 262.267,169.023C268.004,168.024 280.851,166.481 293.845,166.015C307.819,165.513 321.962,166.149 327.61,166.855C358.194,170.677 382.352,185.118 388.808,190.853C411.482,210.996 422.609,244.386 422.609,275.025C422.609,296.758 417.168,315.655 406.284,331.716C395.401,347.777 381.796,359.889 365.471,368.053C350.919,375.329 332.042,379.363 308.843,380.153L308.842,380.153C306.016,380.249 303.125,380.297 300.17,380.297C294.174,380.297 286.6,379.992 277.449,379.382L202.212,377.534ZM342.861,360.834C343.374,360.491 343.882,360.141 344.384,359.783C357.195,350.666 367.2,338.528 374.399,323.367C381.598,308.207 385.197,292.093 385.197,275.025C385.197,269.088 384.952,255.282 384.041,249.606C382.045,239.71 379.402,231.027 376.19,223.422C372.552,215.345 367.839,207.582 362.049,200.132C337.298,171.412 297.78,177.991 256.558,180.314C254.172,182.785 252.919,186.219 252.613,189.383C252.215,193.499 230.82,346.876 232.804,352.866C233.24,354.184 233.786,355.45 234.442,356.665C246.833,376.134 324.295,371.176 342.861,360.834Z" style="fill-rule:nonzero;"/>
    </g>
    <g transform="matrix(1.09582,0,0,1.09582,-28.7596,19.0705)">
        <path d="M240.746,193.076C239.03,184.833 236.167,186.468 224.094,191.035C223.542,191.243 207.908,191.087 197.737,222.516C191.652,241.321 196.486,260.244 209.574,272.074C222.098,283.394 235.499,293.597 235.294,306.851C235.044,322.89 218.962,346.025 203.896,358.348C219.912,354.538 253.605,332.302 254.165,305.845C254.86,272.969 241.538,255.908 220.578,242.916L247.333,176.796L240.746,193.076Z"/>
    </g>
    <g transform="matrix(1.09582,0,0,1.09582,-28.7596,19.0705)">
        <path d="M199.012,336.898C181.291,343.5 174.65,363.556 178.242,370.959C190.124,395.445 222.745,384.93 221.194,402.564C231.19,385.191 203.731,380.818 197.54,367.003C194.199,359.549 199.072,341.972 206.447,337.088L199.012,336.898Z"/>
    </g>
    <g transform="matrix(1.09582,0,0,1.09582,-28.7596,19.0705)">
        <path d="M248.98,216.497C247.752,224.919 246.208,233.193 244.59,241.451C243.893,245.005 243.189,248.543 242.476,252.083C241.682,256.024 240.853,259.948 240.071,263.881C239.288,267.822 238.528,271.764 237.798,275.708C237.171,279.098 236.593,282.492 236.009,285.886C235.132,290.99 234.307,296.089 233.447,301.194L233.442,301.218C233.063,304.418 231.974,307.335 230.41,310.098C228.118,314.147 224.862,317.849 221.305,321.466C225.271,318.172 228.948,314.761 231.662,310.89C233.637,308.073 235.072,305.019 235.792,301.631C237.027,296.65 238.302,291.641 239.496,286.598C240.292,283.238 241.068,279.876 241.786,276.496C242.383,273.681 242.946,270.858 243.462,268.025C243.979,265.192 244.444,262.35 244.878,259.5C245.745,253.81 246.505,248.103 247.123,242.355C248.043,233.795 248.616,225.199 248.98,216.497Z" style="fill:white;"/>
    </g>
    <g transform="matrix(1.09582,0,0,1.09582,-28.7596,19.0705)">
        <path d="M253.667,310.847C252.617,320.482 247.362,327.474 240.57,333.158C237.887,335.402 234.976,337.437 231.982,339.349C229.971,340.633 227.928,341.857 225.901,343.051C223.709,344.342 221.53,345.583 219.44,346.824C217.176,348.168 215.009,349.5 213.012,350.841C207.733,354.387 203.584,357.969 201.753,361.847C199.393,366.848 200.51,372.535 208.445,379.456C210.491,381.219 213.779,382.736 216.68,384.748C217.83,385.545 218.913,386.414 219.827,387.422C219.02,386.308 218.03,385.311 216.959,384.388C214.336,382.125 211.258,380.341 209.436,378.417C203.275,371.996 202.192,367.335 204.509,363.277C205.33,361.84 206.569,360.518 208.081,359.206C210.041,357.506 212.483,355.893 215.186,354.221C217.194,352.98 219.349,351.722 221.567,350.397C223.67,349.14 225.829,347.828 227.982,346.439C233.076,343.152 238.181,339.508 242.471,335.235C248.98,328.752 253.622,320.9 253.667,310.847Z" style="fill:white;"/>
    </g>
    <g transform="matrix(1.09582,0,0,1.09582,-28.7596,19.0705)">
        <path d="M283.33,211.475C282.376,210.584 281.017,209.16 278.997,208.094C277.55,207.331 275.775,206.765 273.578,206.689C271.304,206.621 268.6,207.08 265.805,207.804C261.976,208.796 258,210.297 254.776,211.591C249.717,213.685 244.402,216.291 239.399,219.263C236.016,221.273 232.775,223.441 229.847,225.69C227.115,227.789 224.654,229.961 222.589,232.125C219.938,234.904 217.944,237.689 216.763,240.274L216.719,240.364L216.686,240.458C214.124,248.477 211.893,256.487 210.204,264.548C208.487,272.739 207.327,280.939 206.665,289.168C208.027,281.068 209.967,273.065 212.283,265.066C214.534,257.294 217.136,249.555 220.147,241.854C221.272,239.644 223.173,237.356 225.528,234.987C227.515,232.988 229.841,230.957 232.384,228.94C235.174,226.726 238.22,224.528 241.388,222.435C246.119,219.311 251.088,216.39 255.883,214.048C258.917,212.526 262.668,210.748 266.312,209.462C268.906,208.547 271.429,207.873 273.593,207.748C275.648,207.619 277.354,207.993 278.773,208.574C280.85,209.425 282.312,210.694 283.33,211.475Z" style="fill:white;"/>
    </g>
    <g transform="matrix(1.09582,0,0,1.09582,-28.7596,19.0705)">
        <path d="M217.895,192.397C213.418,195.107 208.382,199.721 203.911,205.676C202.278,207.852 200.738,210.2 199.337,212.701C197.536,215.915 195.972,219.364 194.764,222.973C193.967,225.351 193.327,227.8 192.901,230.293C192.475,232.78 192.262,235.311 192.264,237.852C192.267,241.61 192.736,245.39 193.756,249.113C194.722,252.642 196.165,256.114 198.197,259.464C200.851,263.838 204.473,267.972 209.248,271.778C205.059,267.519 202.058,263.068 199.949,258.529C198.397,255.188 197.376,251.815 196.761,248.43C196.124,244.922 195.98,241.422 196.168,237.956C196.296,235.615 196.597,233.299 197.001,231.006C197.411,228.687 197.931,226.396 198.57,224.151C199.555,220.689 200.798,217.343 202.233,214.167C204.591,208.948 207.412,204.214 210.424,200.284C212.902,197.05 215.437,194.357 217.895,192.397Z" style="fill:white;"/>
    </g>
    <g transform="matrix(1.09582,0,0,1.09582,-28.7596,19.0705)">
        <path d="M287.842,217.741C275.825,209.561 262.93,208.745 249.286,214.231L258.749,188.089L292.607,209.289L287.842,217.741Z"/>
    </g>
    <g transform="matrix(1.09582,0,0,1.09582,-28.7596,19.0705)">
        <path d="M224.757,167.645C230.112,172.751 236.966,175.515 244.617,177.499C247.431,178.228 250.343,178.828 253.325,179.404C255.231,179.772 257.16,180.131 259.111,180.475C262.257,181.031 265.439,181.626 268.64,182.274C273.277,183.212 277.937,184.293 282.504,186.035C285.634,187.229 288.721,188.664 291.744,190.507C295.901,193.042 299.917,196.251 303.712,200.502C300.417,195.718 296.787,191.927 292.873,188.874C289.948,186.592 286.887,184.738 283.726,183.206C279.119,180.972 274.342,179.376 269.513,178.255C266.255,177.499 262.972,176.99 259.732,176.539C257.765,176.266 255.811,176.043 253.877,175.819C250.91,175.476 248.006,175.141 245.176,174.729C237.551,173.62 230.569,171.917 224.757,167.645Z" style="fill:white;"/>
    </g>
</svg>
